<svg width="71" height="71" viewBox="0 0 71 71" fill="none" xmlns="http://www.w3.org/2000/svg">
<g clip-path="url(#clip0_7013_141)">
<path d="M1440 94.989C1440 94.9951 1440 95 1439.99 95V95C1439.98 95 1439.98 94.9953 1439.98 94.9894C1439.45 81.6509 1428.47 71 1415 71H1156.52C1151.45 71 1147.3 67.1673 1145.81 62.3261C1139.54 41.8724 1120.51 27 1098 27H71C48.492 27 29.4585 41.8724 23.1889 62.3261C21.705 67.1673 17.5456 71 12.4821 71H-455C-468.469 71 -479.448 81.6509 -479.978 94.9894C-479.978 94.9953 -479.983 95 -479.989 95V95C-479.995 95 -480 94.9951 -480 94.989V10C-480 4.47715 -475.523 0 -470 0H1430C1435.52 0 1440 4.47715 1440 10V94.989Z" fill="#7027E2"/>
</g>
<defs>
<clipPath id="clip0_7013_141">
<rect width="71" height="71" fill="white"/>
</clipPath>
</defs>
</svg>
