<svg width="71" height="71" viewBox="0 0 71 71" fill="none" xmlns="http://www.w3.org/2000/svg">
<g clip-path="url(#clip0_7013_141)">
<path d="M340 94.989C340 94.9951 339.995 95 339.989 95V95C339.983 95 339.978 94.9953 339.978 94.9894C339.448 81.6509 328.469 71 315 71H56.5179C51.4543 71 47.295 67.1673 45.8111 62.3261C39.5414 41.8724 20.508 27 -2 27H-1029C-1051.51 27 -1070.54 41.8724 -1076.81 62.3261C-1078.3 67.1673 -1082.45 71 -1087.52 71H-1555C-1568.47 71 -1579.45 81.6509 -1579.98 94.9894C-1579.98 94.9953 -1579.98 95 -1579.99 95V95C-1580 95 -1580 94.9951 -1580 94.989V10C-1580 4.47715 -1575.52 0 -1570 0H330C335.523 0 340 4.47715 340 10V94.989Z" fill="#7027E2"/>
</g>
<defs>
<clipPath id="clip0_7013_141">
<rect width="71" height="71" fill="white"/>
</clipPath>
</defs>
</svg>
